<?xml version="1.0" encoding="utf-8"?>
<!-- Generator: Adobe Illustrator 28.0.0, SVG Export Plug-In . SVG Version: 6.00 Build 0)  -->
<svg version="1.1" id="Layer_1" xmlns="http://www.w3.org/2000/svg" xmlns:xlink="http://www.w3.org/1999/xlink" x="0px" y="0px"
	 viewBox="0 0 170.8 170.8" style="enable-background:new 0 0 170.8 170.8;" xml:space="preserve">
<style type="text/css">
	.st0{fill:#3A93A5;}
	.st1{fill:#5CBB60;}
	.st2{fill:#F2AD63;}
	.st3{fill:#F478AC;}
</style>
<path class="st0" d="M46.9,123.9l44.4-44.4l44.4,44.4l-44.5,44.4c-3.3,3.3-8.6,3.3-11.8,0l-32.5-32.6
	C43.7,132.5,43.7,127.2,46.9,123.9C46.9,123.9,46.9,123.9,46.9,123.9z"/>
<path class="st1" d="M123.9,123.9L79.5,79.5L123.9,35l44.4,44.4c3.3,3.3,3.3,8.6,0,11.8c0,0,0,0,0,0l-32.6,32.6
	C132.5,127.2,127.2,127.2,123.9,123.9C123.9,123.9,123.9,123.9,123.9,123.9z"/>
<path class="st2" d="M123.9,46.9L79.5,91.3L35,46.9L79.5,2.5c3.3-3.3,8.6-3.3,11.8,0L123.9,35C127.2,38.3,127.2,43.6,123.9,46.9
	C123.9,46.9,123.9,46.9,123.9,46.9z"/>
<path class="st3" d="M85.4,85.4l-38.5,38.5c-3.3,3.3-8.6,3.3-11.8,0c0,0,0,0,0,0L2.5,91.3c-3.3-3.3-3.3-8.6,0-11.8c0,0,0,0,0,0
	L35,46.9c3.3-3.3,8.6-3.3,11.9,0L85.4,85.4z"/>
<g>
	<path d="M90,44.3v11.3H72.9v42.4H61.5V55.7H43.4V44.3H90z"/>
	<path d="M117.7,44.4c8.2,0,18.9,3.3,18.7,17.5l-0.1,17.8c0,13-11,18.4-19.9,18.4h-21V44.4H117.7z M127,64.6c0-6.7-2.9-9.7-11.1-9.7
		h-8.7v31.5h9.4c5.3,0,10.4-1.8,10.4-8.5V64.6z"/>
</g>
<g>
	<path d="M43.3,121.5v-19.4h3.9v19.4H43.3z"/>
	<path d="M67.1,102.1v19.4h-4v-14.3l-4.2,3.7l-4.2-3.7v14.3h-4.5v-19.4h4.5l4.2,4.7l4.2-4.7H67.1z"/>
	<path d="M69.1,121.5l6.9-19.4h3.8l6.9,19.4h-3.5l-1.2-4h-7.2l-1.3,4H69.1z M80.7,115.2l-2.4-8.2h-0.1l-2.5,8.2H80.7z"/>
	<path d="M102.9,115.5c0,3.8-1.6,5.8-5,6.1c-1.3,0.1-2.5,0.1-4.1,0c-2.9-0.1-6-1.8-6-6v-7.4c0-3.4,2.5-6.1,6.7-6.1h1.9
		c3.5,0,5.4,1.8,6.3,4.3l-3.8,1.1c-0.4-1-0.9-1.7-2.5-1.7h-1.6c-1.9,0-2.9,1.2-2.9,2.6v6.7c0,2,1,3,2.7,3h1.8c2.5,0,2.7-1.5,2.7-3.6
		l0-1.2h-3.1v-2.3h7V115.5z"/>
	<path d="M110.1,105.2v4.7h7.3v2.6h-7.3v6h8.8v2.9h-13.2v-19.4h13.2v3.1H110.1z"/>
	<path d="M121.1,115.2c1.9,1.3,4.2,2.3,7,2.3c1.9,0,3.8-0.4,4-1.8c0.2-1.7-2.4-2.5-3.4-2.7c-2.8-0.7-4.5-1.3-5-1.6
		c-1.7-0.9-2.5-2.2-2.5-3.9c0-3.6,3.9-5.4,7.2-5.4c2.3,0,4.6,0.6,6.5,1.9v3.7c-1.5-1.3-3.7-2.5-5.8-2.3c-1.7,0.2-2.9,0.7-2.9,2
		c0,1.3,2.8,2.2,3.8,2.5c3.6,1.1,6.3,1.8,6.1,5.9c-0.1,4-4.5,5.7-7.8,5.7c-2.4,0-5.1-0.7-7.2-2V115.2z"/>
</g>
</svg>
