<svg xmlns="http://www.w3.org/2000/svg" xml:space="preserve" viewBox="0 0 170.8 170.8">
  <path fill="#3a93a5" d="m46.9 123.9 44.4-44.4 44.4 44.4-44.5 44.4c-3.3 3.3-8.6 3.3-11.8 0l-32.5-32.6c-3.2-3.2-3.2-8.5 0-11.8z"/>
  <path fill="#5cbb60" d="M123.9 123.9 79.5 79.5 123.9 35l44.4 44.4c3.3 3.3 3.3 8.6 0 11.8l-32.6 32.6c-3.2 3.4-8.5 3.4-11.8.1z"/>
  <path fill="#f2ad63" d="M123.9 46.9 79.5 91.3 35 46.9 79.5 2.5c3.3-3.3 8.6-3.3 11.8 0L123.9 35c3.3 3.3 3.3 8.6 0 11.9z"/>
  <path fill="#f478ac" d="m85.4 85.4-38.5 38.5c-3.3 3.3-8.6 3.3-11.8 0L2.5 91.3c-3.3-3.3-3.3-8.6 0-11.8L35 46.9c3.3-3.3 8.6-3.3 11.9 0l38.5 38.5z"/>
  <path d="M90 44.3v11.3H72.9V98H61.5V55.7H43.4V44.3H90zM117.7 44.4c8.2 0 18.9 3.3 18.7 17.5l-.1 17.8c0 13-11 18.4-19.9 18.4h-21V44.4h22.3zm9.3 20.2c0-6.7-2.9-9.7-11.1-9.7h-8.7v31.5h9.4c5.3 0 10.4-1.8 10.4-8.5V64.6zM43.3 121.5v-19.4h3.9v19.4h-3.9zM67.1 102.1v19.4h-4v-14.3l-4.2 3.7-4.2-3.7v14.3h-4.5v-19.4h4.5l4.2 4.7 4.2-4.7h4zM69.1 121.5l6.9-19.4h3.8l6.9 19.4h-3.5l-1.2-4h-7.2l-1.3 4h-4.4zm11.6-6.3-2.4-8.2h-.1l-2.5 8.2h5zM102.9 115.5c0 3.8-1.6 5.8-5 6.1-1.3.1-2.5.1-4.1 0-2.9-.1-6-1.8-6-6v-7.4c0-3.4 2.5-6.1 6.7-6.1h1.9c3.5 0 5.4 1.8 6.3 4.3l-3.8 1.1c-.4-1-.9-1.7-2.5-1.7h-1.6c-1.9 0-2.9 1.2-2.9 2.6v6.7c0 2 1 3 2.7 3h1.8c2.5 0 2.7-1.5 2.7-3.6v-1.2H96V111h7v4.5zM110.1 105.2v4.7h7.3v2.6h-7.3v6h8.8v2.9h-13.2V102h13.2v3.1h-8.8zM121.1 115.2c1.9 1.3 4.2 2.3 7 2.3 1.9 0 3.8-.4 4-1.8.2-1.7-2.4-2.5-3.4-2.7-2.8-.7-4.5-1.3-5-1.6-1.7-.9-2.5-2.2-2.5-3.9 0-3.6 3.9-5.4 7.2-5.4 2.3 0 4.6.6 6.5 1.9v3.7c-1.5-1.3-3.7-2.5-5.8-2.3-1.7.2-2.9.7-2.9 2s2.8 2.2 3.8 2.5c3.6 1.1 6.3 1.8 6.1 5.9-.1 4-4.5 5.7-7.8 5.7-2.4 0-5.1-.7-7.2-2v-4.3z"/>
</svg>
